<svg width="129" height="51" viewBox="0 0 129 51" fill="none" xmlns="http://www.w3.org/2000/svg">
<g filter="url(#filter0_i_198_578)">
<path d="M111.283 0.744C114.611 0.744 117.619 1.512 120.307 3.048C122.952 4.62667 125.064 6.76 126.643 9.448C128.179 12.136 128.947 15.1653 128.947 18.536C128.947 21.9067 128.243 24.9147 126.835 27.56C125.384 30.248 123.422 32.36 120.947 33.896C118.472 35.4747 115.678 36.264 112.563 36.264C110.046 36.264 107.72 35.7307 105.587 34.664C103.454 33.64 101.662 32.232 100.211 30.44V47.72C100.211 48.7013 99.9123 49.4907 99.315 50.088C98.675 50.6853 97.8857 50.984 96.947 50.984C95.9657 50.984 95.1763 50.6853 94.579 50.088C93.9817 49.4907 93.683 48.7013 93.683 47.72V18.536C93.683 15.1653 94.4723 12.136 96.051 9.448C97.587 6.76 99.6777 4.62667 102.323 3.048C104.968 1.512 107.955 0.744 111.283 0.744ZM111.283 6.504C109.107 6.504 107.166 7.016 105.459 8.04C103.752 9.10667 102.408 10.5573 101.427 12.392C100.446 14.2267 99.955 16.2747 99.955 18.536C99.955 20.84 100.446 22.888 101.427 24.68C102.408 26.472 103.752 27.88 105.459 28.904C107.166 29.9707 109.107 30.504 111.283 30.504C113.416 30.504 115.358 29.9707 117.107 28.904C118.814 27.88 120.179 26.472 121.203 24.68C122.184 22.888 122.675 20.84 122.675 18.536C122.675 16.2747 122.184 14.2267 121.203 12.392C120.179 10.5573 118.814 9.10667 117.107 8.04C115.358 7.016 113.416 6.504 111.283 6.504Z" fill="#FF8682"/>
<path d="M68.523 0.744C71.6377 0.744 74.4323 1.512 76.907 3.048C79.3817 4.62667 81.3443 6.73867 82.795 9.384C84.203 12.072 84.907 15.1013 84.907 18.472C84.907 21.8427 84.139 24.872 82.603 27.56C81.0243 30.248 78.9123 32.36 76.267 33.896C73.579 35.4747 70.571 36.264 67.243 36.264C63.915 36.264 60.9283 35.4747 58.283 33.896C55.6377 32.36 53.547 30.248 52.011 27.56C50.4323 24.872 49.643 21.8427 49.643 18.472H52.139C52.139 15.1013 52.8643 12.072 54.315 9.384C55.723 6.73867 57.6643 4.62667 60.139 3.048C62.6137 1.512 65.4083 0.744 68.523 0.744ZM67.243 6.504C65.067 6.504 63.1257 7.016 61.419 8.04C59.7123 9.10667 58.3683 10.536 57.387 12.328C56.4057 14.1627 55.915 16.2107 55.915 18.472C55.915 20.776 56.4057 22.824 57.387 24.616C58.3683 26.4507 59.7123 27.88 61.419 28.904C63.1257 29.9707 65.067 30.504 67.243 30.504C69.3763 30.504 71.3177 29.9707 73.067 28.904C74.7737 27.88 76.139 26.4507 77.163 24.616C78.1443 22.824 78.635 20.776 78.635 18.472C78.635 16.2107 78.1443 14.1627 77.163 12.328C76.139 10.536 74.7737 9.10667 73.067 8.04C71.3177 7.016 69.3763 6.504 67.243 6.504ZM52.907 0.936C53.8457 0.936 54.635 1.23467 55.275 1.832C55.8723 2.472 56.171 3.26133 56.171 4.2V13.992L54.955 20.776L49.643 18.472L49.643 4.2C49.643 3.26133 49.963 2.472 50.603 1.832C51.2003 1.23467 51.9683 0.936 52.907 0.936Z" fill="#B5B8D3"/>
<path d="M32.8235 1C33.5062 1 34.1462 1.192 34.7435 1.576C35.2982 2.00267 35.6822 2.51467 35.8955 3.112L45.3675 31.528C45.7088 32.8507 45.7088 33.9173 45.3675 34.728C44.9835 35.5813 44.1728 36.008 42.9355 36.008C42.1248 36.008 41.4635 35.7733 40.9515 35.304C40.3968 34.8773 39.9488 34.1307 39.6075 33.064L31.5435 7.848H33.7835L26.1675 33.576C25.9542 34.3013 25.5915 34.8773 25.0795 35.304C24.5675 35.7733 23.8635 36.008 22.9675 36.008C22.1142 36.008 21.4315 35.7733 20.9195 35.304C20.3648 34.8773 20.0022 34.3013 19.8315 33.576L13.6235 9.384H14.5835L7.0315 33.064C6.43416 35.0267 5.32483 36.008 3.7035 36.008C2.50883 36.008 1.69816 35.5813 1.2715 34.728C0.84483 33.9173 0.866164 32.8507 1.3355 31.528L10.8075 3.112C10.9782 2.51467 11.3408 2.00267 11.8955 1.576C12.4502 1.192 13.0902 1 13.8155 1C14.4982 1 15.1382 1.192 15.7355 1.576C16.3328 2.00267 16.7168 2.51467 16.8875 3.112L23.4795 27.496H22.8395L29.7515 3.112C29.9222 2.51467 30.3062 2.00267 30.9035 1.576C31.4582 1.192 32.0982 1 32.8235 1Z" fill="#FFD7C2"/>
</g>
<defs>
<filter id="filter0_i_198_578" x="0.631348" y="0.744019" width="128.315" height="54.24" filterUnits="userSpaceOnUse" color-interpolation-filters="sRGB">
<feFlood flood-opacity="0" result="BackgroundImageFix"/>
<feBlend mode="normal" in="SourceGraphic" in2="BackgroundImageFix" result="shape"/>
<feColorMatrix in="SourceAlpha" type="matrix" values="0 0 0 0 0 0 0 0 0 0 0 0 0 0 0 0 0 0 127 0" result="hardAlpha"/>
<feOffset dy="4"/>
<feGaussianBlur stdDeviation="2"/>
<feComposite in2="hardAlpha" operator="arithmetic" k2="-1" k3="1"/>
<feColorMatrix type="matrix" values="0 0 0 0 0 0 0 0 0 0 0 0 0 0 0 0 0 0 0.25 0"/>
<feBlend mode="normal" in2="shape" result="effect1_innerShadow_198_578"/>
</filter>
</defs>
</svg>
