<svg width="229" height="151" viewBox="0 0 229 151" fill="none" xmlns="http://www.w3.org/2000/svg">
<g filter="url(#filter0_d_8_350)">
<path d="M161.283 46.744C164.611 46.744 167.619 47.512 170.307 49.048C172.952 50.6267 175.064 52.76 176.643 55.448C178.179 58.136 178.947 61.1653 178.947 64.536C178.947 67.9067 178.243 70.9147 176.835 73.56C175.384 76.248 173.422 78.36 170.947 79.896C168.472 81.4747 165.678 82.264 162.563 82.264C160.046 82.264 157.72 81.7307 155.587 80.664C153.454 79.64 151.662 78.232 150.211 76.44V93.72C150.211 94.7013 149.912 95.4907 149.315 96.088C148.675 96.6853 147.886 96.984 146.947 96.984C145.966 96.984 145.176 96.6853 144.579 96.088C143.982 95.4907 143.683 94.7013 143.683 93.72V64.536C143.683 61.1653 144.472 58.136 146.051 55.448C147.587 52.76 149.678 50.6267 152.323 49.048C154.968 47.512 157.955 46.744 161.283 46.744ZM161.283 52.504C159.107 52.504 157.166 53.016 155.459 54.04C153.752 55.1067 152.408 56.5573 151.427 58.392C150.446 60.2267 149.955 62.2747 149.955 64.536C149.955 66.84 150.446 68.888 151.427 70.68C152.408 72.472 153.752 73.88 155.459 74.904C157.166 75.9707 159.107 76.504 161.283 76.504C163.416 76.504 165.358 75.9707 167.107 74.904C168.814 73.88 170.179 72.472 171.203 70.68C172.184 68.888 172.675 66.84 172.675 64.536C172.675 62.2747 172.184 60.2267 171.203 58.392C170.179 56.5573 168.814 55.1067 167.107 54.04C165.358 53.016 163.416 52.504 161.283 52.504Z" fill="white"/>
<path d="M118.523 46.744C121.638 46.744 124.432 47.512 126.907 49.048C129.382 50.6267 131.344 52.7387 132.795 55.384C134.203 58.072 134.907 61.1013 134.907 64.472C134.907 67.8427 134.139 70.872 132.603 73.56C131.024 76.248 128.912 78.36 126.267 79.896C123.579 81.4747 120.571 82.264 117.243 82.264C113.915 82.264 110.928 81.4747 108.283 79.896C105.638 78.36 103.547 76.248 102.011 73.56C100.432 70.872 99.643 67.8427 99.643 64.472H102.139C102.139 61.1013 102.864 58.072 104.315 55.384C105.723 52.7387 107.664 50.6267 110.139 49.048C112.614 47.512 115.408 46.744 118.523 46.744ZM117.243 52.504C115.067 52.504 113.126 53.016 111.419 54.04C109.712 55.1067 108.368 56.536 107.387 58.328C106.406 60.1627 105.915 62.2107 105.915 64.472C105.915 66.776 106.406 68.824 107.387 70.616C108.368 72.4507 109.712 73.88 111.419 74.904C113.126 75.9707 115.067 76.504 117.243 76.504C119.376 76.504 121.318 75.9707 123.067 74.904C124.774 73.88 126.139 72.4507 127.163 70.616C128.144 68.824 128.635 66.776 128.635 64.472C128.635 62.2107 128.144 60.1627 127.163 58.328C126.139 56.536 124.774 55.1067 123.067 54.04C121.318 53.016 119.376 52.504 117.243 52.504ZM102.907 46.936C103.846 46.936 104.635 47.2347 105.275 47.832C105.872 48.472 106.171 49.2613 106.171 50.2V59.992L104.955 66.776L99.643 64.472L99.643 50.2C99.643 49.2613 99.963 48.472 100.603 47.832C101.2 47.2347 101.968 46.936 102.907 46.936Z" fill="#348CFA"/>
<path d="M82.8235 47C83.5062 47 84.1462 47.192 84.7435 47.576C85.2982 48.0027 85.6822 48.5147 85.8955 49.112L95.3675 77.528C95.7088 78.8507 95.7088 79.9173 95.3675 80.728C94.9835 81.5813 94.1728 82.008 92.9355 82.008C92.1248 82.008 91.4635 81.7733 90.9515 81.304C90.3968 80.8773 89.9488 80.1307 89.6075 79.064L81.5435 53.848H83.7835L76.1675 79.576C75.9542 80.3013 75.5915 80.8773 75.0795 81.304C74.5675 81.7733 73.8635 82.008 72.9675 82.008C72.1142 82.008 71.4315 81.7733 70.9195 81.304C70.3648 80.8773 70.0022 80.3013 69.8315 79.576L63.6235 55.384H64.5835L57.0315 79.064C56.4342 81.0267 55.3248 82.008 53.7035 82.008C52.5088 82.008 51.6982 81.5813 51.2715 80.728C50.8448 79.9173 50.8662 78.8507 51.3355 77.528L60.8075 49.112C60.9782 48.5147 61.3408 48.0027 61.8955 47.576C62.4502 47.192 63.0902 47 63.8155 47C64.4982 47 65.1382 47.192 65.7355 47.576C66.3328 48.0027 66.7168 48.5147 66.8875 49.112L73.4795 73.496H72.8395L79.7515 49.112C79.9222 48.5147 80.3062 48.0027 80.9035 47.576C81.4582 47.192 82.0982 47 82.8235 47Z" fill="#FFCD36"/>
</g>
<defs>
<filter id="filter0_d_8_350" x="0.63147" y="0.743988" width="228.316" height="150.24" filterUnits="userSpaceOnUse" color-interpolation-filters="sRGB">
<feFlood flood-opacity="0" result="BackgroundImageFix"/>
<feColorMatrix in="SourceAlpha" type="matrix" values="0 0 0 0 0 0 0 0 0 0 0 0 0 0 0 0 0 0 127 0" result="hardAlpha"/>
<feOffset dy="4"/>
<feGaussianBlur stdDeviation="25"/>
<feComposite in2="hardAlpha" operator="out"/>
<feColorMatrix type="matrix" values="0 0 0 0 0 0 0 0 0 0 0 0 0 0 0 0 0 0 0.25 0"/>
<feBlend mode="normal" in2="BackgroundImageFix" result="effect1_dropShadow_8_350"/>
<feBlend mode="normal" in="SourceGraphic" in2="effect1_dropShadow_8_350" result="shape"/>
</filter>
</defs>
</svg>
