<svg width="202" height="40" viewBox="0 0 202 40" fill="none" xmlns="http://www.w3.org/2000/svg">
<path d="M6.76 16.08C5.72 16.08 4.78 15.84 3.94 15.36C3.11333 14.8667 2.45333 14.2 1.96 13.36C1.48 12.52 1.24 11.5733 1.24 10.52C1.24 9.46667 1.46667 8.52667 1.92 7.7C2.37333 6.86 2.99333 6.2 3.78 5.72C4.56667 5.22667 5.46 4.98 6.46 4.98C7.28667 4.98 8.04 5.15333 8.72 5.5C9.41333 5.84667 9.98667 6.31333 10.44 6.9V1.3C10.44 1.02 10.5267 0.799999 10.7 0.64C10.8733 0.466666 11.0933 0.38 11.36 0.38C11.64 0.38 11.8667 0.466666 12.04 0.64C12.2133 0.799999 12.3 1.02 12.3 1.3V10.56C12.2867 11.6 12.0333 12.54 11.54 13.38C11.06 14.22 10.4 14.88 9.56 15.36C8.73333 15.84 7.8 16.08 6.76 16.08ZM6.76 14.44C7.48 14.44 8.12 14.2733 8.68 13.94C9.24 13.5933 9.68 13.1267 10 12.54C10.3333 11.94 10.5 11.2667 10.5 10.52C10.5 9.77333 10.3333 9.10667 10 8.52C9.68 7.93333 9.24 7.47333 8.68 7.14C8.12 6.79333 7.48 6.62 6.76 6.62C6.06667 6.62 5.43333 6.79333 4.86 7.14C4.28667 7.47333 3.83333 7.93333 3.5 8.52C3.18 9.10667 3.02 9.77333 3.02 10.52C3.02 11.2667 3.18 11.94 3.5 12.54C3.83333 13.1267 4.28667 13.5933 4.86 13.94C5.43333 14.2733 6.06667 14.44 6.76 14.44ZM20.2616 16.08C19.2616 16.08 18.3682 15.84 17.5816 15.36C16.7949 14.88 16.1749 14.22 15.7216 13.38C15.2682 12.54 15.0416 11.5933 15.0416 10.54C15.0416 9.47333 15.2816 8.52667 15.7616 7.7C16.2549 6.86 16.9149 6.2 17.7416 5.72C18.5816 5.22667 19.5216 4.98 20.5616 4.98C21.6149 4.98 22.5549 5.22667 23.3816 5.72C24.2082 6.2 24.8616 6.86 25.3416 7.7C25.8349 8.54 26.0882 9.48667 26.1016 10.54L25.3816 10.72C25.3816 11.7333 25.1549 12.6467 24.7016 13.46C24.2482 14.2733 23.6349 14.9133 22.8616 15.38C22.1016 15.8467 21.2349 16.08 20.2616 16.08ZM20.5616 14.44C21.2816 14.44 21.9216 14.2733 22.4816 13.94C23.0416 13.5933 23.4816 13.1267 23.8016 12.54C24.1349 11.94 24.3016 11.2733 24.3016 10.54C24.3016 9.79333 24.1349 9.12667 23.8016 8.54C23.4816 7.94 23.0416 7.47333 22.4816 7.14C21.9216 6.79333 21.2816 6.62 20.5616 6.62C19.8682 6.62 19.2349 6.79333 18.6616 7.14C18.0882 7.47333 17.6349 7.94 17.3016 8.54C16.9816 9.12667 16.8216 9.79333 16.8216 10.54C16.8216 11.2733 16.9816 11.94 17.3016 12.54C17.6349 13.1267 18.0882 13.5933 18.6616 13.94C19.2349 14.2733 19.8682 14.44 20.5616 14.44ZM25.1616 16.02C24.8949 16.02 24.6749 15.9333 24.5016 15.76C24.3282 15.5867 24.2416 15.3667 24.2416 15.1V11.9L24.6216 9.98L26.1016 10.54V15.1C26.1016 15.3667 26.0082 15.5867 25.8216 15.76C25.6482 15.9333 25.4282 16.02 25.1616 16.02ZM30.7117 16C30.5117 16 30.3317 15.9467 30.1717 15.84C30.0117 15.72 29.8984 15.5733 29.8317 15.4L26.8117 6.34C26.7184 5.95333 26.7251 5.64667 26.8317 5.42C26.9384 5.18 27.1651 5.06 27.5117 5.06C27.7384 5.06 27.9251 5.12 28.0717 5.24C28.2317 5.36 28.3584 5.56 28.4517 5.84L31.0717 13.96H30.4717L32.9117 5.76C32.9784 5.54667 33.0851 5.38 33.2317 5.26C33.3784 5.12667 33.5784 5.06 33.8317 5.06C34.0717 5.06 34.2651 5.12667 34.4117 5.26C34.5717 5.38 34.6784 5.54667 34.7317 5.76L36.8717 13.6H36.5517L39.0517 5.84C39.2117 5.32 39.5184 5.06 39.9717 5.06C40.3184 5.06 40.5517 5.18667 40.6717 5.44C40.7917 5.68 40.7851 5.98 40.6517 6.34L37.6317 15.4C37.5784 15.5733 37.4717 15.72 37.3117 15.84C37.1651 15.9467 36.9851 16 36.7717 16C36.5851 16 36.4051 15.9467 36.2317 15.84C36.0584 15.72 35.9517 15.5733 35.9117 15.4L33.6717 7.5H33.8917L31.5917 15.4C31.5384 15.5733 31.4251 15.72 31.2517 15.84C31.0917 15.9467 30.9117 16 30.7117 16ZM40.1927 19.38C40.046 19.38 39.9327 19.3333 39.8527 19.24C39.7727 19.1467 39.7327 19.0333 39.7327 18.9C39.7327 18.66 39.7993 18.4467 39.9327 18.26C40.0793 18.0867 40.2193 17.8933 40.3527 17.68C40.4993 17.4667 40.5727 17.2067 40.5727 16.9C40.5727 16.6733 40.5193 16.48 40.4127 16.32C40.3193 16.1733 40.206 16.04 40.0727 15.92C39.9393 15.7867 39.8193 15.6467 39.7127 15.5C39.6193 15.34 39.5727 15.14 39.5727 14.9C39.5727 14.5533 39.686 14.2667 39.9127 14.04C40.1527 13.8133 40.466 13.7 40.8527 13.7C41.306 13.7 41.6593 13.8667 41.9127 14.2C42.1793 14.5333 42.3193 14.9867 42.3327 15.56C42.3327 15.9733 42.266 16.4 42.1327 16.84C42.0127 17.2933 41.8393 17.7067 41.6127 18.08C41.3993 18.4667 41.166 18.78 40.9127 19.02C40.6727 19.26 40.4327 19.38 40.1927 19.38ZM5.26 24.18V26.26C5.26 29.4 3.76 32.82 0.66 34.2L2.16 36.3C5.64 34.72 7.38 30.54 7.38 26.26V24.18H5.26ZM5.86 24.18V26.26C5.86 30.38 7.58 34.32 11.1 35.84L12.54 33.74C9.44 32.46 7.96 29.26 7.96 26.26V24.18H5.86ZM1.4 23.04V25.22H11.78V23.04H1.4ZM13.5 21.26V39.78H16.18V21.26H13.5ZM20.8584 29.52V31.64H33.8784V29.52H20.8584ZM18.9184 35.52V37.7H35.6784V35.52H18.9184ZM25.9384 30.48V36.22H28.5984V30.48H25.9384ZM20.8584 22.52V30.44H23.5184V24.66H33.7384V22.52H20.8584ZM36.9969 29.56V31.5H53.7769V29.56H36.9969ZM38.8769 32.42V34.22H49.1569V35.14H38.9169V38.4H41.5569V36.82H51.7769V32.42H38.8769ZM38.9169 37.84V39.64H52.2969V37.84H38.9169ZM39.0569 21.58V23.36H49.1169V24.28H39.0769V27.46H41.7169V25.94H51.7369V21.58H39.0569ZM39.0769 26.9V28.7H52.0769V26.9H39.0769ZM60.6747 35.48V37.64H77.4347V35.48H60.6747ZM67.6947 31.52V36H70.3547V31.52H67.6947ZM62.4347 22.44V32.08H75.6147V22.44H72.9747V25.28H65.0747V22.44H62.4347ZM65.0747 27.36H72.9747V29.96H65.0747V27.36ZM80.8331 26.26V28.36H93.6731V26.26H80.8331ZM78.7531 30.28V32.4H95.5331V30.28H78.7531ZM80.8331 21.92V27.3H83.4731V21.92H80.8331ZM80.6531 37.26V39.38H93.7731V37.26H80.6531ZM80.6531 33.88V37.82H83.3131V33.88H80.6531ZM111.371 29.18V31.3H118.031V29.18H111.371ZM102.431 35.48V37.66H119.191V35.48H102.431ZM109.431 32.08V36.46H112.071V32.08H109.431ZM111.371 22.76V30.26H114.031V24.9H117.931V22.76H111.371ZM103.691 22.78V30.08H106.351V24.9H110.231V22.78H103.691ZM103.691 29.12V31.3H104.871C107.091 31.3 108.691 31.24 110.531 30.88L110.351 28.7C108.551 29.06 107.011 29.12 104.871 29.12H103.691ZM132.349 21.24V39.82H135.029V21.24H132.349ZM134.429 28.1V30.28H137.709V28.1H134.429ZM121.229 33.16V35.36H122.789C126.009 35.36 128.549 35.28 131.349 34.78L131.089 32.58C128.369 33.06 125.909 33.16 122.789 33.16H121.229ZM121.229 22.96V34.22H123.869V25.1H129.869V22.96H121.229ZM138.608 31.26V33.38H155.388V31.26H138.608ZM140.708 37.34V39.46H153.768V37.34H140.708ZM140.708 34.4V38.26H143.368V34.4H140.708ZM140.668 21.68V23.7H150.728V24.94H140.688V28.74H143.328V26.82H153.348V21.68H140.668ZM140.688 28.12V30.12H153.708V28.12H140.688ZM163.086 22.6V24.74H171.006V22.6H163.086ZM165.366 26.92V31.56H168.006V26.92H165.366ZM169.966 22.6V23.76C169.966 25.04 169.966 26.64 169.566 28.92L172.146 29.2C172.586 26.9 172.586 25.06 172.586 23.76V22.6H169.966ZM174.386 21.26V35.12H177.066V21.26H174.386ZM176.006 26.9V29.08H179.266V26.9H176.006ZM164.706 37.34V39.46H177.646V37.34H164.706ZM164.706 33.88V38H167.366V33.88H164.706ZM162.246 32.64C165.426 32.64 169.726 32.56 173.546 31.84L173.386 29.96C169.666 30.48 165.206 30.54 162.006 30.54L162.246 32.64ZM190.384 25.52V27.68H193.904V25.52H190.384ZM193.204 21.26V31.96H195.864V21.26H193.204ZM183.524 32.72V39.58H195.864V32.72H183.524ZM193.264 34.8V37.48H186.144V34.8H193.264ZM184.644 22.98V24.14C184.644 26.48 183.324 28.9 180.264 29.9L181.604 32C185.164 30.84 186.804 27.64 186.804 24.14V22.98H184.644ZM185.204 22.98V24.14C185.204 27.44 186.784 30.52 190.224 31.66L191.524 29.56C188.604 28.58 187.344 26.3 187.344 24.14V22.98H185.204ZM180.984 22.2V24.3H190.944V22.2H180.984ZM199.963 38.32C199.603 38.32 199.296 38.1933 199.043 37.94C198.789 37.6867 198.663 37.38 198.663 37.02C198.663 36.66 198.789 36.3533 199.043 36.1C199.309 35.8333 199.616 35.7 199.963 35.7C200.323 35.7 200.629 35.8333 200.883 36.1C201.136 36.3533 201.263 36.66 201.263 37.02C201.263 37.3667 201.136 37.6733 200.883 37.94C200.629 38.1933 200.323 38.32 199.963 38.32Z" fill="white"/>
</svg>
