<svg width="201" height="108" viewBox="0 0 201 108" fill="none" xmlns="http://www.w3.org/2000/svg">
<line x1="5.99853" y1="93.5" x2="146.002" y2="93.5" stroke="#FF8682" stroke-width="10" stroke-linecap="round"/>
<g filter="url(#filter0_i_198_547)">
<circle cx="169" cy="98" r="10" fill="#FF8682"/>
</g>
<g filter="url(#filter1_i_198_547)">
<path d="M168.174 21.616C173.166 21.616 177.678 22.768 181.71 25.072C185.678 27.44 188.846 30.64 191.214 34.672C193.518 38.704 194.67 43.248 194.67 48.304C194.67 53.36 193.614 57.872 191.502 61.84C189.326 65.872 186.382 69.04 182.67 71.344C178.958 73.712 174.766 74.896 170.094 74.896C166.318 74.896 162.83 74.096 159.63 72.496C156.43 70.96 153.742 68.848 151.566 66.16V92.08C151.566 93.552 151.118 94.736 150.222 95.632C149.262 96.528 148.078 96.976 146.67 96.976C145.198 96.976 144.014 96.528 143.118 95.632C142.222 94.736 141.774 93.552 141.774 92.08V48.304C141.774 43.248 142.958 38.704 145.326 34.672C147.63 30.64 150.766 27.44 154.734 25.072C158.702 22.768 163.182 21.616 168.174 21.616ZM168.174 30.256C164.91 30.256 161.998 31.024 159.438 32.56C156.878 34.16 154.862 36.336 153.39 39.088C151.918 41.84 151.182 44.912 151.182 48.304C151.182 51.76 151.918 54.832 153.39 57.52C154.862 60.208 156.878 62.32 159.438 63.856C161.998 65.456 164.91 66.256 168.174 66.256C171.374 66.256 174.286 65.456 176.91 63.856C179.47 62.32 181.518 60.208 183.054 57.52C184.526 54.832 185.262 51.76 185.262 48.304C185.262 44.912 184.526 41.84 183.054 39.088C181.518 36.336 179.47 34.16 176.91 32.56C174.286 31.024 171.374 30.256 168.174 30.256Z" fill="#FF8682"/>
<path d="M104.034 21.616C108.706 21.616 112.898 22.768 116.61 25.072C120.322 27.44 123.266 30.608 125.442 34.576C127.554 38.608 128.61 43.152 128.61 48.208C128.61 53.264 127.458 57.808 125.154 61.84C122.786 65.872 119.618 69.04 115.65 71.344C111.618 73.712 107.106 74.896 102.114 74.896C97.1225 74.896 92.6425 73.712 88.6745 71.344C84.7065 69.04 81.5705 65.872 79.2665 61.84C76.8985 57.808 75.7145 53.264 75.7145 48.208H79.4585C79.4585 43.152 80.5465 38.608 82.7225 34.576C84.8345 30.608 87.7465 27.44 91.4585 25.072C95.1705 22.768 99.3625 21.616 104.034 21.616ZM102.114 30.256C98.8505 30.256 95.9385 31.024 93.3785 32.56C90.8185 34.16 88.8025 36.304 87.3305 38.992C85.8585 41.744 85.1225 44.816 85.1225 48.208C85.1225 51.664 85.8585 54.736 87.3305 57.424C88.8025 60.176 90.8185 62.32 93.3785 63.856C95.9385 65.456 98.8505 66.256 102.114 66.256C105.314 66.256 108.226 65.456 110.85 63.856C113.41 62.32 115.458 60.176 116.994 57.424C118.466 54.736 119.202 51.664 119.202 48.208C119.202 44.816 118.466 41.744 116.994 38.992C115.458 36.304 113.41 34.16 110.85 32.56C108.226 31.024 105.314 30.256 102.114 30.256ZM80.6105 21.904C82.0185 21.904 83.2025 22.352 84.1625 23.248C85.0585 24.208 85.5065 25.392 85.5065 26.8V41.488L83.6825 51.664L75.7145 48.208V26.8C75.7145 25.392 76.1945 24.208 77.1545 23.248C78.0505 22.352 79.2025 21.904 80.6105 21.904Z" fill="#B5B8D3"/>
<path d="M50.4853 22C51.5093 22 52.4693 22.288 53.3653 22.864C54.1973 23.504 54.7733 24.272 55.0933 25.168L69.3013 67.792C69.8133 69.776 69.8133 71.376 69.3013 72.592C68.7253 73.872 67.5093 74.512 65.6533 74.512C64.4373 74.512 63.4453 74.16 62.6773 73.456C61.8453 72.816 61.1733 71.696 60.6613 70.096L48.5653 32.272H51.9253L40.5013 70.864C40.1813 71.952 39.6373 72.816 38.8693 73.456C38.1013 74.16 37.0453 74.512 35.7013 74.512C34.4213 74.512 33.3973 74.16 32.6293 73.456C31.7973 72.816 31.2533 71.952 30.9972 70.864L21.6852 34.576H23.1252L11.7973 70.096C10.9013 73.04 9.23725 74.512 6.80525 74.512C5.01325 74.512 3.79725 73.872 3.15725 72.592C2.51725 71.376 2.54925 69.776 3.25325 67.792L17.4613 25.168C17.7172 24.272 18.2612 23.504 19.0932 22.864C19.9252 22.288 20.8853 22 21.9733 22C22.9973 22 23.9573 22.288 24.8533 22.864C25.7493 23.504 26.3253 24.272 26.5812 25.168L36.4693 61.744H35.5093L45.8773 25.168C46.1333 24.272 46.7093 23.504 47.6053 22.864C48.4373 22.288 49.3973 22 50.4853 22Z" fill="#FFD7C2"/>
</g>
<defs>
<filter id="filter0_i_198_547" x="159" y="88" width="20" height="24" filterUnits="userSpaceOnUse" color-interpolation-filters="sRGB">
<feFlood flood-opacity="0" result="BackgroundImageFix"/>
<feBlend mode="normal" in="SourceGraphic" in2="BackgroundImageFix" result="shape"/>
<feColorMatrix in="SourceAlpha" type="matrix" values="0 0 0 0 0 0 0 0 0 0 0 0 0 0 0 0 0 0 127 0" result="hardAlpha"/>
<feOffset dy="4"/>
<feGaussianBlur stdDeviation="2"/>
<feComposite in2="hardAlpha" operator="arithmetic" k2="-1" k3="1"/>
<feColorMatrix type="matrix" values="0 0 0 0 0 0 0 0 0 0 0 0 0 0 0 0 0 0 0.25 0"/>
<feBlend mode="normal" in2="shape" result="effect1_innerShadow_198_547"/>
</filter>
<filter id="filter1_i_198_547" x="2.19727" y="21.616" width="192.473" height="79.36" filterUnits="userSpaceOnUse" color-interpolation-filters="sRGB">
<feFlood flood-opacity="0" result="BackgroundImageFix"/>
<feBlend mode="normal" in="SourceGraphic" in2="BackgroundImageFix" result="shape"/>
<feColorMatrix in="SourceAlpha" type="matrix" values="0 0 0 0 0 0 0 0 0 0 0 0 0 0 0 0 0 0 127 0" result="hardAlpha"/>
<feOffset dy="4"/>
<feGaussianBlur stdDeviation="2"/>
<feComposite in2="hardAlpha" operator="arithmetic" k2="-1" k3="1"/>
<feColorMatrix type="matrix" values="0 0 0 0 0 0 0 0 0 0 0 0 0 0 0 0 0 0 0.25 0"/>
<feBlend mode="normal" in2="shape" result="effect1_innerShadow_198_547"/>
</filter>
</defs>
</svg>
