<svg width="203" height="107" viewBox="0 0 203 107" fill="none" xmlns="http://www.w3.org/2000/svg">
<g filter="url(#filter0_d_8_71)">
<path d="M170.174 21.616C175.166 21.616 179.678 22.768 183.71 25.072C187.678 27.44 190.846 30.64 193.214 34.672C195.518 38.704 196.67 43.248 196.67 48.304C196.67 53.36 195.614 57.872 193.502 61.84C191.326 65.872 188.382 69.04 184.67 71.344C180.958 73.712 176.766 74.896 172.094 74.896C168.318 74.896 164.83 74.096 161.63 72.496C158.43 70.96 155.742 68.848 153.566 66.16V92.08C153.566 93.552 153.118 94.736 152.222 95.632C151.262 96.528 150.078 96.976 148.67 96.976C147.198 96.976 146.014 96.528 145.118 95.632C144.222 94.736 143.774 93.552 143.774 92.08V48.304C143.774 43.248 144.958 38.704 147.326 34.672C149.63 30.64 152.766 27.44 156.734 25.072C160.702 22.768 165.182 21.616 170.174 21.616ZM170.174 30.256C166.91 30.256 163.998 31.024 161.438 32.56C158.878 34.16 156.862 36.336 155.39 39.088C153.918 41.84 153.182 44.912 153.182 48.304C153.182 51.76 153.918 54.832 155.39 57.52C156.862 60.208 158.878 62.32 161.438 63.856C163.998 65.456 166.91 66.256 170.174 66.256C173.374 66.256 176.286 65.456 178.91 63.856C181.47 62.32 183.518 60.208 185.054 57.52C186.526 54.832 187.262 51.76 187.262 48.304C187.262 44.912 186.526 41.84 185.054 39.088C183.518 36.336 181.47 34.16 178.91 32.56C176.286 31.024 173.374 30.256 170.174 30.256Z" fill="white"/>
<path d="M106.034 21.616C110.706 21.616 114.898 22.768 118.61 25.072C122.322 27.44 125.266 30.608 127.442 34.576C129.554 38.608 130.61 43.152 130.61 48.208C130.61 53.264 129.458 57.808 127.154 61.84C124.786 65.872 121.618 69.04 117.65 71.344C113.618 73.712 109.106 74.896 104.114 74.896C99.1225 74.896 94.6425 73.712 90.6745 71.344C86.7065 69.04 83.5705 65.872 81.2665 61.84C78.8985 57.808 77.7145 53.264 77.7145 48.208H81.4585C81.4585 43.152 82.5465 38.608 84.7225 34.576C86.8345 30.608 89.7465 27.44 93.4585 25.072C97.1705 22.768 101.362 21.616 106.034 21.616ZM104.114 30.256C100.85 30.256 97.9385 31.024 95.3785 32.56C92.8185 34.16 90.8025 36.304 89.3305 38.992C87.8585 41.744 87.1225 44.816 87.1225 48.208C87.1225 51.664 87.8585 54.736 89.3305 57.424C90.8025 60.176 92.8185 62.32 95.3785 63.856C97.9385 65.456 100.85 66.256 104.114 66.256C107.314 66.256 110.226 65.456 112.85 63.856C115.41 62.32 117.458 60.176 118.994 57.424C120.466 54.736 121.202 51.664 121.202 48.208C121.202 44.816 120.466 41.744 118.994 38.992C117.458 36.304 115.41 34.16 112.85 32.56C110.226 31.024 107.314 30.256 104.114 30.256ZM82.6105 21.904C84.0185 21.904 85.2025 22.352 86.1625 23.248C87.0585 24.208 87.5065 25.392 87.5065 26.8V41.488L85.6825 51.664L77.7145 48.208V26.8C77.7145 25.392 78.1945 24.208 79.1545 23.248C80.0505 22.352 81.2025 21.904 82.6105 21.904Z" fill="#348CFA"/>
<path d="M52.4853 22C53.5093 22 54.4693 22.288 55.3653 22.864C56.1973 23.504 56.7733 24.272 57.0933 25.168L71.3013 67.792C71.8133 69.776 71.8133 71.376 71.3013 72.592C70.7253 73.872 69.5093 74.512 67.6533 74.512C66.4373 74.512 65.4453 74.16 64.6773 73.456C63.8453 72.816 63.1733 71.696 62.6613 70.096L50.5653 32.272H53.9253L42.5013 70.864C42.1813 71.952 41.6373 72.816 40.8693 73.456C40.1013 74.16 39.0453 74.512 37.7013 74.512C36.4213 74.512 35.3973 74.16 34.6293 73.456C33.7973 72.816 33.2533 71.952 32.9972 70.864L23.6852 34.576H25.1252L13.7973 70.096C12.9013 73.04 11.2373 74.512 8.80525 74.512C7.01325 74.512 5.79725 73.872 5.15725 72.592C4.51725 71.376 4.54925 69.776 5.25325 67.792L19.4613 25.168C19.7172 24.272 20.2612 23.504 21.0932 22.864C21.9252 22.288 22.8853 22 23.9733 22C24.9973 22 25.9573 22.288 26.8533 22.864C27.7493 23.504 28.3253 24.272 28.5812 25.168L38.4693 61.744H37.5093L47.8773 25.168C48.1333 24.272 48.7093 23.504 49.6053 22.864C50.4373 22.288 51.3973 22 52.4853 22Z" fill="#FFCD36"/>
</g>
<defs>
<filter id="filter0_d_8_71" x="0.197266" y="21.616" width="200.473" height="83.36" filterUnits="userSpaceOnUse" color-interpolation-filters="sRGB">
<feFlood flood-opacity="0" result="BackgroundImageFix"/>
<feColorMatrix in="SourceAlpha" type="matrix" values="0 0 0 0 0 0 0 0 0 0 0 0 0 0 0 0 0 0 127 0" result="hardAlpha"/>
<feOffset dy="4"/>
<feGaussianBlur stdDeviation="2"/>
<feComposite in2="hardAlpha" operator="out"/>
<feColorMatrix type="matrix" values="0 0 0 0 0 0 0 0 0 0 0 0 0 0 0 0 0 0 0.25 0"/>
<feBlend mode="normal" in2="BackgroundImageFix" result="effect1_dropShadow_8_71"/>
<feBlend mode="normal" in="SourceGraphic" in2="effect1_dropShadow_8_71" result="shape"/>
</filter>
</defs>
</svg>
